<!-- icon666.com - MILLIONS vector ICONS FREE --><svg id="Layer_1" enable-background="new 0 0 512 512" viewBox="0 0 512 512" xmlns="http://www.w3.org/2000/svg"><path d="m256 0c-141.159 0-256 114.841-256 256s114.841 256 256 256 256-114.841 256-256-114.841-256-256-256zm0 480c-123.514 0-224-100.486-224-224s100.486-224 224-224 224 100.486 224 224-100.486 224-224 224zm128.423-335.601c0 8.837-7.163 16-16 16h-224.845c-8.837 0-16-7.163-16-16s7.163-16 16-16h224.845c8.837 0 16 7.164 16 16zm0 111.601c0 8.837-7.163 16-16 16h-224.845c-8.837 0-16-7.163-16-16s7.163-16 16-16h224.845c8.837 0 16 7.163 16 16zm0 111.601c0 8.837-7.163 16-16 16h-224.845c-8.837 0-16-7.163-16-16s7.163-16 16-16h224.845c8.837 0 16 7.163 16 16z" fill="#000000" style="fill: rgb(184, 184, 184);"></path></svg>