<!-- icon666.com - MILLIONS vector ICONS FREE --><svg enable-background="new 0 0 32 32" viewBox="0 0 32 32" xmlns="http://www.w3.org/2000/svg"><g id="Menu"><g><path d="m23.313 2.104h-14.459c-3.676 0-6.666 2.99-6.666 6.666v14.459c0 3.676 2.99 6.666 6.666 6.666h14.459c3.676 0 6.666-2.99 6.666-6.666v-14.458c0-3.676-2.991-6.667-6.666-6.667zm4.666 21.125c0 2.573-2.093 4.666-4.666 4.666h-14.459c-2.573 0-4.666-2.093-4.666-4.666v-14.458c0-2.573 2.093-4.666 4.666-4.666h14.459c2.573 0 4.666 2.093 4.666 4.666z" fill="#000000" style="fill: rgb(214, 214, 214);"></path><path d="m9.015 5.854c-1.737 0-3.149 1.411-3.149 3.146s1.412 3.146 3.148 3.146c1.734 0 3.146-1.412 3.146-3.146s-1.411-3.146-3.145-3.146zm0 4.292c-.633 0-1.148-.514-1.148-1.146s.516-1.146 1.148-1.146 1.146.514 1.146 1.146-.515 1.146-1.146 1.146z" fill="#000000" style="fill: rgb(214, 214, 214);"></path><path d="m23.82 6.453h-8.324c-1.384 0-2.509 1.148-2.509 2.561s1.125 2.562 2.509 2.562h8.324c1.367 0 2.479-1.149 2.479-2.562.001-1.412-1.111-2.561-2.479-2.561zm0 3.122h-8.324c-.28 0-.509-.252-.509-.562 0-.309.229-.561.509-.561h8.324c.26 0 .479.257.479.561.001.31-.214.562-.479.562z" fill="#000000" style="fill: rgb(214, 214, 214);"></path><path d="m9.015 12.854c-1.736 0-3.148 1.412-3.148 3.146s1.412 3.146 3.148 3.146c1.734 0 3.146-1.412 3.146-3.146s-1.412-3.146-3.146-3.146zm0 4.292c-.633 0-1.148-.514-1.148-1.146s.516-1.146 1.148-1.146 1.146.514 1.146 1.146-.515 1.146-1.146 1.146z" fill="#000000" style="fill: rgb(214, 214, 214);"></path><path d="m23.82 13.453h-8.324c-1.384 0-2.509 1.148-2.509 2.561s1.125 2.562 2.509 2.562h8.324c1.367 0 2.479-1.149 2.479-2.562.001-1.412-1.111-2.561-2.479-2.561zm0 3.122h-8.324c-.28 0-.509-.252-.509-.562 0-.309.229-.561.509-.561h8.324c.26 0 .479.257.479.561.001.31-.214.562-.479.562z" fill="#000000" style="fill: rgb(214, 214, 214);"></path><path d="m9.015 19.854c-1.736 0-3.148 1.412-3.148 3.146s1.412 3.146 3.148 3.146c1.734 0 3.146-1.412 3.146-3.146s-1.412-3.146-3.146-3.146zm0 4.292c-.633 0-1.148-.514-1.148-1.146s.516-1.146 1.148-1.146 1.146.514 1.146 1.146-.515 1.146-1.146 1.146z" fill="#000000" style="fill: rgb(214, 214, 214);"></path><path d="m23.82 20.453h-8.324c-1.384 0-2.509 1.148-2.509 2.561s1.125 2.562 2.509 2.562h8.324c1.367 0 2.479-1.149 2.479-2.562.001-1.412-1.111-2.561-2.479-2.561zm0 3.122h-8.324c-.28 0-.509-.252-.509-.562 0-.309.229-.561.509-.561h8.324c.26 0 .479.257.479.561.001.31-.214.562-.479.562z" fill="#000000" style="fill: rgb(214, 214, 214);"></path></g></g></svg>